RBDS001runT25_grf
version=1
nRows=18
nColumns=19
inDegrees=no
endheader
time	ground_force_r_vx	ground_force_r_vy	ground_force_r_vz	ground_force_r_px	ground_force_r_py	ground_force_r_pz	ground_force_r_mx	ground_force_r_my	ground_force_r_mz	ground_force_l_vx	ground_force_l_vy	ground_force_l_vz	ground_force_l_px	ground_force_l_py	ground_force_l_pz	ground_force_l_mx	ground_force_l_my	ground_force_l_mz
      0.00000000	   -183.93242789	    320.29864725	    -68.01661653	      2.51115512	      0.00000000	      1.12838200	      0.00000000	    -21.89197200	      0.00000000	      0.00000000	      0.00000000	      0.00000000	      0.00000000	      0.00000000	      0.00000000	      0.00000000	      0.00000000	      0.00000000
      0.00100000	   -180.65224816	    340.53097213	    -65.44588341	      2.50859000	      0.00000000	      1.12803808	      0.00000000	    -20.80525015	      0.00000000	      0.00000000	      0.00000000	      0.00000000	      0.00000000	      0.00000000	      0.00000000	      0.00000000	      0.00000000	      0.00000000
      0.00200000	   -177.37206844	    360.76329701	    -62.87515029	      2.50602488	      0.00000000	      1.12769416	      0.00000000	    -19.71852830	      0.00000000	      0.00000000	      0.00000000	      0.00000000	      0.00000000	      0.00000000	      0.00000000	      0.00000000	      0.00000000	      0.00000000
      0.00300000	   -174.09188871	    380.99562189	    -60.30441717	      2.50345977	      0.00000000	      1.12735024	      0.00000000	    -18.63180645	      0.00000000	      0.00000000	      0.00000000	      0.00000000	      0.00000000	      0.00000000	      0.00000000	      0.00000000	      0.00000000	      0.00000000
      0.00400000	   -170.86336170	    401.11132081	    -57.77095282	      2.50089569	      0.00000000	      1.12700798	      0.00000000	    -17.55834808	      0.00000000	      0.00000000	      0.00000000	      0.00000000	      0.00000000	      0.00000000	      0.00000000	      0.00000000	      0.00000000	      0.00000000
      0.00500000	   -167.66066105	    421.16870676	    -55.25612285	      2.49833214	      0.00000000	      1.12666656	      0.00000000	    -16.49152146	      0.00000000	      0.00000000	      0.00000000	      0.00000000	      0.00000000	      0.00000000	      0.00000000	      0.00000000	      0.00000000	      0.00000000
      0.00600000	   -164.45796040	    441.22609271	    -52.74129289	      2.49576859	      0.00000000	      1.12632513	      0.00000000	    -15.42469484	      0.00000000	      0.00000000	      0.00000000	      0.00000000	      0.00000000	      0.00000000	      0.00000000	      0.00000000	      0.00000000	      0.00000000
      0.00700000	   -161.30505809	    461.16215765	    -50.25544734	      2.49320736	      0.00000000	      1.12598515	      0.00000000	    -14.37038761	      0.00000000	      0.00000000	      0.00000000	      0.00000000	      0.00000000	      0.00000000	      0.00000000	      0.00000000	      0.00000000	      0.00000000
      0.00800000	   -158.25175246	    480.85558057	    -47.82757065	      2.49065078	      0.00000000	      1.12564807	      0.00000000	    -13.34111918	      0.00000000	      0.00000000	      0.00000000	      0.00000000	      0.00000000	      0.00000000	      0.00000000	      0.00000000	      0.00000000	      0.00000000
      0.00900000	   -155.19844684	    500.54900350	    -45.39969395	      2.48809421	      0.00000000	      1.12531098	      0.00000000	    -12.31185074	      0.00000000	      0.00000000	      0.00000000	      0.00000000	      0.00000000	      0.00000000	      0.00000000	      0.00000000	      0.00000000	      0.00000000
      0.01000000	   -152.14514121	    520.24242642	    -42.97181726	      2.48553763	      0.00000000	      1.12497390	      0.00000000	    -11.28258231	      0.00000000	      0.00000000	      0.00000000	      0.00000000	      0.00000000	      0.00000000	      0.00000000	      0.00000000	      0.00000000	      0.00000000
      0.01100000	   -149.30543331	    539.39650167	    -40.66121965	      2.48299265	      0.00000000	      1.12464301	      0.00000000	    -10.30709370	      0.00000000	      0.00000000	      0.00000000	      0.00000000	      0.00000000	      0.00000000	      0.00000000	      0.00000000	      0.00000000	      0.00000000
      0.01200000	   -146.46572541	    558.55057692	    -38.35062205	      2.48044768	      0.00000000	      1.12431212	      0.00000000	     -9.33160510	      0.00000000	      0.00000000	      0.00000000	      0.00000000	      0.00000000	      0.00000000	      0.00000000	      0.00000000	      0.00000000	      0.00000000
      0.01300000	   -143.62601751	    577.70465216	    -36.04002444	      2.47790270	      0.00000000	      1.12398123	      0.00000000	     -8.35611650	      0.00000000	      0.00000000	      0.00000000	      0.00000000	      0.00000000	      0.00000000	      0.00000000	      0.00000000	      0.00000000	      0.00000000
      0.01400000	   -140.96441165	    596.39413896	    -33.82689734	      2.47536819	      0.00000000	      1.12365570	      0.00000000	     -7.42596419	      0.00000000	      0.00000000	      0.00000000	      0.00000000	      0.00000000	      0.00000000	      0.00000000	      0.00000000	      0.00000000	      0.00000000
      0.01500000	   -138.39185681	    614.85133153	    -31.66250548	      2.47283891	      0.00000000	      1.12333285	     -0.00000000	     -6.51848002	      0.00000000	      0.00000000	      0.00000000	      0.00000000	      0.00000000	      0.00000000	      0.00000000	      0.00000000	      0.00000000	      0.00000000
      0.01600000	   -135.81930196	    633.30852411	    -29.49811362	      2.47030963	      0.00000000	      1.12301000	     -0.00000000	     -5.61099584	      0.00000000	      0.00000000	      0.00000000	      0.00000000	      0.00000000	      0.00000000	      0.00000000	      0.00000000	      0.00000000	      0.00000000
      0.01700000	   -133.34937447	    651.48807277	    -27.39141262	      2.46778685	      0.00000000	      1.12269044	     -0.00000000	     -4.73010524	      0.00000000	      0.00000000	      0.00000000	      0.00000000	      0.00000000	      0.00000000	      0.00000000	      0.00000000	      0.00000000	      0.00000000
